<?xml version="1.0" standalone="no"?>
<!DOCTYPE svg PUBLIC "-//W3C//DTD SVG 20010904//EN"
 "http://www.w3.org/TR/2001/REC-SVG-20010904/DTD/svg10.dtd">
<svg version="1.0" xmlns="http://www.w3.org/2000/svg"
 width="680.000000pt" height="324.000000pt" viewBox="0 0 680.000000 324.000000"
 preserveAspectRatio="xMidYMid meet">

<g transform="translate(0.000000,324.000000) scale(0.100000,-0.100000)"
fill="#000000" stroke="none">
<path d="M1480 619 c-83 -38 -116 -108 -108 -229 6 -84 38 -140 96 -168 94
-48 202 -34 270 33 23 23 42 47 42 52 0 5 -16 15 -35 22 -34 12 -36 11 -68
-23 -55 -58 -130 -61 -183 -5 -26 27 -29 38 -32 107 -3 87 16 134 64 152 60
23 146 2 159 -41 4 -13 12 -18 22 -15 8 3 20 6 26 6 70 1 17 87 -72 118 -52
18 -130 14 -181 -9z"/>
<path d="M2789 612 c-73 -38 -104 -97 -103 -197 1 -156 108 -245 262 -215 63
12 79 19 114 57 54 57 73 154 47 248 -33 118 -195 173 -320 107z m185 -63 c38
-30 56 -71 56 -129 0 -67 -21 -115 -62 -140 -40 -24 -79 -25 -125 -3 -85 40
-98 203 -22 267 40 34 113 36 153 5z"/>
<path d="M3262 621 c-56 -26 -80 -76 -63 -132 15 -51 47 -74 133 -94 129 -31
161 -63 113 -111 -20 -20 -34 -24 -81 -24 -50 0 -59 3 -85 31 -28 30 -32 31
-70 23 l-41 -9 24 -34 c38 -58 81 -76 173 -76 88 1 128 16 164 61 40 50 19
139 -39 169 -16 8 -60 22 -97 31 -37 8 -78 22 -90 30 -30 19 -30 58 -1 78 41
29 131 14 143 -25 5 -14 14 -16 48 -12 23 3 43 7 45 8 8 7 -31 67 -54 82 -41
26 -168 29 -222 4z"/>
<path d="M3928 630 c-94 -28 -139 -95 -139 -209 -1 -125 52 -199 155 -221 69
-14 163 0 222 35 l44 26 0 85 0 85 -92 -3 -93 -3 0 -30 c0 -29 2 -30 53 -33
52 -3 52 -3 52 -36 0 -28 -5 -36 -32 -47 -18 -8 -59 -14 -90 -14 -49 0 -61 4
-88 30 -72 69 -60 219 22 261 48 25 125 14 155 -20 20 -23 28 -26 56 -21 45
10 48 13 35 39 -30 68 -162 106 -260 76z"/>
<path d="M4876 625 c-84 -30 -127 -99 -127 -205 -1 -143 73 -223 206 -224 75
0 123 16 164 56 44 44 61 89 61 167 -1 142 -80 222 -220 221 -25 -1 -62 -7
-84 -15z m149 -67 c41 -19 66 -69 66 -135 1 -69 -10 -100 -46 -133 -21 -20
-37 -25 -80 -25 -45 0 -58 4 -83 28 -71 68 -62 219 16 261 33 18 92 20 127 4z"/>
<path d="M740 415 l0 -215 45 0 45 0 0 95 0 96 98 -3 97 -3 3 -93 3 -92 44 0
44 0 0 215 0 215 -44 0 -45 0 0 -85 0 -85 -100 0 -100 0 0 85 0 85 -45 0 -45
0 0 -215z"/>
<path d="M1210 415 l0 -215 40 0 40 0 0 215 0 215 -40 0 -40 0 0 -215z"/>
<path d="M1810 600 l0 -30 70 0 70 0 0 -185 0 -185 45 0 45 0 0 185 0 185 70
0 70 0 0 30 0 30 -185 0 -185 0 0 -30z"/>
<path d="M2240 415 l0 -215 40 0 39 0 3 83 3 82 55 0 55 0 50 -82 50 -83 48 0
c26 0 47 2 47 5 0 3 -25 43 -55 90 l-54 85 29 15 c41 21 62 57 62 107 1 54
-14 83 -55 108 -28 17 -51 20 -174 20 l-143 0 0 -215z m272 126 c13 -17 17
-33 13 -50 -12 -47 -29 -55 -117 -56 l-83 0 -3 54 c-5 83 -4 84 89 79 71 -3
83 -6 101 -27z"/>
<path d="M4300 415 l0 -215 45 0 45 0 0 85 0 85 53 0 53 0 50 -83 51 -82 51
-3 52 -3 -55 85 c-30 47 -55 89 -55 93 0 5 14 16 30 25 58 33 76 132 33 180
-37 42 -66 48 -213 48 l-140 0 0 -215z m269 131 c12 -11 21 -31 21 -46 0 -46
-32 -64 -121 -69 l-79 -3 0 72 0 72 79 -3 c60 -3 84 -9 100 -23z"/>
<path d="M5252 466 c5 -186 16 -218 86 -252 52 -26 166 -25 211 1 66 39 75 62
81 203 3 70 4 146 2 170 -3 42 -4 42 -42 42 l-38 0 -4 -149 c-3 -133 -5 -153
-24 -178 -29 -39 -83 -52 -129 -30 -46 22 -55 59 -55 225 l0 132 -46 0 -46 0
4 -164z"/>
<path d="M5720 415 l0 -215 45 0 45 0 0 74 0 73 85 6 c100 7 138 25 166 79 23
44 24 77 5 123 -26 62 -62 75 -213 75 l-133 0 0 -215z m249 131 c29 -26 27
-71 -4 -101 -21 -22 -33 -25 -90 -25 l-65 0 0 76 0 76 69 -4 c50 -2 75 -9 90
-22z"/>
</g>
</svg>
